<svg id="Capa_1" enable-background="new 0 0 512 512" height="512" viewBox="0 0 512 512" width="512" xmlns="http://www.w3.org/2000/svg"><path d="m512 256c0 141.385-114.615 256-256 256-47.637 0-92.233-13.009-130.424-35.673-25.328-15.026-47.835-34.283-66.55-56.811-36.864-44.345-59.026-101.345-59.026-163.516 0-141.385 114.615-256 256-256s256 114.615 256 256z" fill="#5c5560"/><path d="m327.21 396.225v49.643c0 16.823-13.646 30.459-30.469 30.459h-171.165c-25.328-15.026-47.835-34.283-66.55-56.811v-179.451l217.172 126.454z" fill="#efefef"/><path d="m482.237 284.324c10.705 10.716 10.705 28.084 0 38.789l-73.079 73.09-194.284-.284-155.848-155.851v-165.426c0-16.832 13.643-30.475 30.476-30.475h152.58zm-317.926-159.026c0-14.68-11.889-26.569-26.569-26.569s-26.569 11.889-26.569 26.569 11.889 26.569 26.569 26.569 26.569-11.89 26.569-26.569z" fill="#4184f8"/><path d="m327.21 396.225v49.643c0 16.823-13.646 30.459-30.469 30.459h-1.463l-80.405-80.405 61.325-29.403z" fill="#e2e2e2"/><path d="m409.159 396.202-.034.023h-81.916-112.027l-.307-.307 75.458-75.458c11.9-11.89 31.192-11.89 43.082 0z" fill="#a0c1fa"/></svg>